<svg xmlns="http://www.w3.org/2000/svg" version="1.1" xmlns:xlink="http://www.w3.org/1999/xlink" xmlns:svgjs="http://svgjs.dev/svgjs" width="1500" height="1500" viewBox="0 0 1500 1500"><g transform="matrix(1,0,0,1,-0.7499999999998863,-0.7488698086558543)"><svg viewBox="0 0 280 280" data-background-color="#ffffff" preserveAspectRatio="xMidYMid meet" height="1500" width="1500" xmlns="http://www.w3.org/2000/svg" xmlns:xlink="http://www.w3.org/1999/xlink"><g id="tight-bounds" transform="matrix(1,0,0,1,0.13999999999998636,0.139789030949089)"><svg viewBox="0 0 279.72 279.72" height="279.72" width="279.72"><g><svg viewBox="0 0 279.72 279.72" height="279.72" width="279.72"><g><svg viewBox="0 0 279.72 279.72" height="279.72" width="279.72"><g id="textblocktransform"><svg viewBox="0 0 279.72 279.72" height="279.72" width="279.72" id="textblock"><g><svg viewBox="0 0 279.72 279.72" height="279.72" width="279.72"><g transform="matrix(1,0,0,1,73.92936372216631,83.68270251553383)"><svg viewBox="0 0 131.8612725556674 112.35459496893235" height="112.35459496893235" width="131.8612725556674"><g id="icon-0"><svg xmlns="http://www.w3.org/2000/svg" xmlns:xlink="http://www.w3.org/1999/xlink" version="1.1" x="0" y="0" viewBox="5.049999999999999 11.827 90 76.686" enable-background="new 0 0 100 100" xml:space="preserve" height="112.35459496893235" width="131.8612725556674" class="icon-xg-0" data-fill-palette-color="accent" id="xg-0"><g fill="#fab9c5" data-fill-palette-color="accent"><g fill="#fab9c5" data-fill-palette-color="accent"><rect x="11.536" y="81.824" width="7.5" height="0.203" fill="#fab9c5" data-fill-palette-color="accent"></rect></g></g><g fill="#fab9c5" data-fill-palette-color="accent"><g fill="#fab9c5" data-fill-palette-color="accent"><path d="M91.807 11.827H77.82c-1.784 0-3.235 1.443-3.243 3.227v10.03H25.523V15.07c0-1.792-1.451-3.243-3.243-3.243H8.293c-1.792 0-3.243 1.451-3.243 3.243v70.2c0 1.792 1.451 3.243 3.243 3.243H22.28c0.859 0 1.686-0.341 2.295-0.949 0.949-0.949 0.949-0.949 0.949-8.757v-3.219h49.054v9.681c0 1.792 1.451 3.243 3.243 3.243h13.986c1.792 0 3.243-1.451 3.243-3.243v-70.2C95.05 13.278 93.599 11.827 91.807 11.827zM19.036 82.027h-7.5v-7.395h7.5V82.027zM19.036 67.44h-7.5v-7.192h7.5V67.44zM19.036 53.056h-7.5v-7.192h7.5V53.056zM19.036 38.673h-7.5v-7.192h7.5V38.673zM19.036 24.289h-7.5v-5.976h7.5V24.289zM74.577 69.102H25.523V31.57h49.054V69.102zM88.563 82.027h-7.5v-7.395h7.5V82.027zM88.563 67.44h-7.5v-7.192h7.5V67.44zM88.563 53.056h-7.5v-7.192h7.5V53.056zM88.563 38.673h-7.5v-7.192h7.5V38.673zM88.563 24.289h-7.5v-5.976h7.5V24.289z" fill="#fab9c5" data-fill-palette-color="accent"></path></g><g fill="#fab9c5" data-fill-palette-color="accent"><rect x="81.064" y="81.824" width="7.5" height="0.203" fill="#fab9c5" data-fill-palette-color="accent"></rect></g></g><g fill="#fab9c5" data-fill-palette-color="accent"><g fill="#fab9c5" data-fill-palette-color="accent"><path d="M59.391 50.17c0 0.592-0.308 1.151-0.811 1.468l-15.195 9.641c-0.284 0.186-0.608 0.276-0.932 0.276-0.292 0-0.576-0.073-0.843-0.219-0.551-0.308-0.9-0.892-0.9-1.524V40.529c0-0.641 0.349-1.224 0.9-1.532 0.559-0.3 1.241-0.284 1.776 0.057l15.195 9.649C59.082 49.019 59.391 49.57 59.391 50.17z" fill="#fab9c5" data-fill-palette-color="accent"></path></g></g></svg></g></svg></g><g id="text-0"><path d="M29.826 102.58l-1.916 5.661-2.512-0.851 1.881-5.556c0.689-2.036 0.655-3.751-0.103-5.146-0.764-1.397-2.174-2.443-4.229-3.139v0l-5.109-1.729c-2.068-0.7-3.826-0.726-5.276-0.079-1.443 0.65-2.509 1.993-3.198 4.029v0l-1.887 5.575-2.493-0.844 1.923-5.68c1.005-2.968 2.525-4.953 4.56-5.953 2.038-1.007 4.493-1.024 7.366-0.052v0l5.148 1.743c2.861 0.968 4.801 2.473 5.82 4.515 1.022 2.036 1.03 4.537 0.025 7.506zM28.226 107.308l-0.995 2.94-22.92-7.758 0.995-2.94z" fill="#516b8a" data-fill-palette-color="primary"></path><path d="M36.17 88.005l-1.614 2.745-17.018-18.795 2.516-4.278 24.707 5.722-1.61 2.736-22.401-5.461-0.239 0.407zM36.293 73.709l-5.586 9.498-2.251-1.324 5.586-9.498z" fill="#516b8a" data-fill-palette-color="primary"></path><path d="M52.354 65.17v0c-0.759 0.884-1.523 1.631-2.293 2.241-0.77 0.61-1.508 1.11-2.214 1.501-0.701 0.396-1.324 0.695-1.869 0.898v0l-2.581-1.79c1.074-0.358 2.206-0.895 3.396-1.613 1.189-0.718 2.29-1.666 3.301-2.845v0c1.216-1.418 1.865-2.683 1.946-3.796 0.081-1.113-0.382-2.101-1.388-2.964v0l-0.228-0.196c-0.661-0.567-1.318-0.896-1.971-0.989-0.653-0.092-1.394 0.057-2.224 0.448-0.835 0.387-1.845 1.02-3.031 1.898v0c-1.511 1.103-2.846 1.877-4.004 2.323-1.153 0.449-2.222 0.569-3.206 0.359-0.989-0.204-1.982-0.734-2.978-1.588v0l-0.13-0.112c-1.504-1.291-2.245-2.782-2.223-4.474 0.028-1.688 0.9-3.533 2.618-5.536v0c1.129-1.316 2.225-2.322 3.288-3.015 1.059-0.689 2.001-1.186 2.828-1.492v0l2.378 1.656c-0.991 0.332-2.014 0.831-3.07 1.496-1.061 0.661-2.092 1.575-3.095 2.744v0c-0.798 0.93-1.334 1.776-1.608 2.538-0.269 0.766-0.309 1.455-0.12 2.068 0.189 0.612 0.576 1.169 1.161 1.671v0l0.053 0.045c0.595 0.51 1.212 0.819 1.852 0.927 0.64 0.108 1.387-0.023 2.242-0.392 0.85-0.374 1.923-1.028 3.22-1.963v0c1.48-1.077 2.775-1.846 3.883-2.306 1.114-0.465 2.158-0.597 3.133-0.397 0.979 0.196 2 0.749 3.062 1.661v0l0.305 0.261c1.657 1.421 2.455 3.037 2.393 4.846-0.062 1.8-1.004 3.762-2.826 5.887z" fill="#516b8a" data-fill-palette-color="primary"></path><path d="M48.695 34.38l15.252 18.785-2.441 1.981-15.252-18.785zM60.041 25.168l15.252 18.785-2.441 1.982-15.252-18.786zM55.874 45.358l-1.671-2.059 10.917-8.864 1.671 2.059z" fill="#516b8a" data-fill-palette-color="primary"></path><path d="M98.749 32.698l-4.637 1.901-16.002-19.591 3.049-1.25 14.146 17.768 0.418-0.171-2.381-22.593 3.03-1.242z" fill="#516b8a" data-fill-palette-color="primary"></path><path d="M112.985 27.97l-2.968 0.799-4.807-17.845 2.968-0.8zM105.905 7.595v0c-0.608 0.164-1.103 0.127-1.486-0.109-0.385-0.243-0.653-0.646-0.804-1.209v0l-0.026-0.097c-0.153-0.569-0.124-1.052 0.088-1.449 0.212-0.397 0.622-0.677 1.23-0.841v0c0.608-0.164 1.11-0.129 1.506 0.104 0.389 0.235 0.66 0.637 0.813 1.206v0l0.026 0.097c0.153 0.569 0.121 1.053-0.098 1.452-0.225 0.4-0.641 0.682-1.249 0.846z" fill="#516b8a" data-fill-palette-color="primary"></path><path d="M125.149 26.483v0c-2.204 0.291-3.971-0.171-5.3-1.387-1.335-1.208-2.175-3.12-2.521-5.736v0l-0.4-3.027c-0.347-2.629-0.028-4.711 0.958-6.246 0.979-1.534 2.601-2.451 4.865-2.75v0c1.129-0.149 2.129-0.089 3.003 0.181 0.881 0.275 1.622 0.721 2.223 1.338 0.602 0.623 1.055 1.391 1.358 2.302v0l0.986-0.13-0.527 2.917c-0.182-1.07-0.543-1.941-1.085-2.613-0.541-0.671-1.215-1.146-2.022-1.425-0.807-0.278-1.698-0.353-2.674-0.224v0c-1.547 0.204-2.672 0.812-3.376 1.824-0.697 1.011-0.93 2.392-0.698 4.145v0l0.46 3.485c0.229 1.733 0.811 2.993 1.746 3.782 0.942 0.794 2.187 1.089 3.734 0.884v0c0.929-0.123 1.726-0.41 2.388-0.862 0.67-0.447 1.196-1.019 1.577-1.718 0.388-0.693 0.616-1.449 0.683-2.269v0l1.043 2.071-0.906 0.12c-0.063 0.853-0.295 1.653-0.696 2.402-0.407 0.756-0.998 1.392-1.774 1.906-0.782 0.522-1.797 0.866-3.045 1.03zM134.257 24.875l-3.047 0.402-0.446-4.449-0.188-0.968-1.012-7.658-0.064-0.64-0.767-5.187-0.789-5.975 3.027-0.4z" fill="#516b8a" data-fill-palette-color="primary"></path><path d="M147.665 25.783v0c-2.816-0.129-4.905-0.911-6.268-2.347-1.362-1.436-1.985-3.436-1.867-5.998v0l0.15-3.291c0.119-2.602 0.873-4.575 2.261-5.92 1.389-1.344 3.357-1.958 5.906-1.841v0c1.712 0.078 3.129 0.461 4.251 1.149 1.115 0.688 1.936 1.634 2.465 2.837 0.529 1.197 0.756 2.609 0.681 4.235v0l-0.031 0.682c-0.018 0.401-0.054 0.805-0.106 1.212-0.052 0.4-0.11 0.796-0.175 1.188v0l-2.819-0.129c0.055-0.608 0.098-1.182 0.129-1.723 0.031-0.542 0.058-1.04 0.078-1.495v0c0.051-1.124-0.086-2.082-0.412-2.874-0.326-0.792-0.834-1.409-1.524-1.849-0.697-0.441-1.581-0.686-2.651-0.735v0c-1.592-0.073-2.804 0.334-3.635 1.222-0.838 0.88-1.296 2.18-1.375 3.899v0l-0.08 1.755 0.002 0.383-0.08 1.756c-0.035 0.769 0.047 1.467 0.247 2.092 0.199 0.632 0.529 1.184 0.99 1.654 0.468 0.464 1.071 0.83 1.81 1.098 0.739 0.268 1.626 0.426 2.663 0.474v0c1.197 0.055 2.318-0.052 3.363-0.319 1.051-0.267 2.044-0.651 2.978-1.151v0l-0.412 2.636c-0.84 0.478-1.808 0.846-2.906 1.104-1.098 0.258-2.309 0.357-3.633 0.296zM154.29 17.66l-13.124-0.6 0.105-2.307 13.124 0.599z" fill="#516b8a" data-fill-palette-color="primary"></path><path d="M166.536 28.708v0c-2.59-0.568-4.399-1.698-5.427-3.39-1.034-1.694-1.263-3.852-0.688-6.475v0l0.604-2.757c0.574-2.616 1.687-4.473 3.34-5.571 1.646-1.099 3.758-1.366 6.335-0.802v0c2.59 0.568 4.403 1.695 5.439 3.383 1.029 1.686 1.257 3.837 0.683 6.453v0l-0.605 2.757c-0.575 2.623-1.683 4.488-3.324 5.595-1.648 1.106-3.767 1.375-6.357 0.807zM167.072 26.265v0c1.603 0.351 2.926 0.145 3.971-0.62 1.039-0.766 1.754-2.042 2.145-3.828v0l0.678-3.091c0.39-1.779 0.273-3.231-0.351-4.354-0.631-1.125-1.747-1.864-3.35-2.216v0c-1.589-0.348-2.906-0.144-3.95 0.615-1.044 0.758-1.761 2.027-2.151 3.806v0l-0.677 3.091c-0.392 1.786-0.273 3.245 0.356 4.376 0.629 1.132 1.739 1.872 3.329 2.221z" fill="#516b8a" data-fill-palette-color="primary"></path><path d="M194.092 38.98v0c-1.038-0.53-1.943-1.098-2.716-1.704-0.773-0.606-1.433-1.206-1.979-1.8-0.549-0.589-0.986-1.124-1.311-1.607v0l1.135-2.927c0.6 0.961 1.388 1.935 2.364 2.922 0.977 0.988 2.157 1.835 3.541 2.542v0c1.664 0.85 3.046 1.184 4.146 1.002 1.101-0.182 1.953-0.863 2.556-2.044v0l0.137-0.268c0.396-0.775 0.563-1.491 0.5-2.148-0.063-0.656-0.382-1.342-0.957-2.056-0.572-0.721-1.424-1.555-2.557-2.502v0c-1.427-1.21-2.492-2.326-3.196-3.348-0.707-1.015-1.074-2.026-1.101-3.033-0.033-1.01 0.249-2.099 0.846-3.267v0l0.078-0.152c0.902-1.765 2.178-2.835 3.828-3.21 1.647-0.369 3.646 0.047 5.995 1.247v0c1.544 0.789 2.779 1.619 3.703 2.49 0.918 0.868 1.622 1.667 2.112 2.399v0l-1.052 2.699c-0.555-0.885-1.28-1.763-2.174-2.633-0.891-0.876-2.022-1.665-3.393-2.366v0c-1.091-0.558-2.039-0.88-2.844-0.968-0.808-0.082-1.487 0.041-2.038 0.369-0.551 0.328-1.002 0.834-1.352 1.52v0l-0.032 0.062c-0.356 0.698-0.512 1.37-0.467 2.018 0.045 0.647 0.348 1.343 0.907 2.088 0.563 0.739 1.45 1.628 2.663 2.669v0c1.394 1.186 2.445 2.264 3.152 3.235 0.713 0.974 1.086 1.958 1.12 2.952 0.039 0.998-0.26 2.12-0.896 3.366v0l-0.183 0.357c-0.993 1.944-2.376 3.098-4.15 3.464-1.764 0.362-3.892-0.094-6.385-1.368z" fill="#516b8a" data-fill-palette-color="primary"></path><path d="M211.019 49.662v0c-1.147-0.847-1.944-1.702-2.39-2.564-0.446-0.862-0.567-1.763-0.364-2.703 0.205-0.931 0.693-1.919 1.465-2.964v0l6.926-9.382 2.441 1.802-6.712 9.09c-0.72 0.975-1.027 1.859-0.922 2.653 0.105 0.793 0.686 1.58 1.741 2.36v0c0.598 0.441 1.224 0.8 1.879 1.074 0.645 0.276 1.302 0.474 1.971 0.594v0l-1.798 1.944c-0.653-0.108-1.352-0.328-2.096-0.661-0.748-0.328-1.462-0.742-2.141-1.243zM224.108 39.273l-10.715-7.911 1.467-1.988 10.942 8.078zM219.491 33.181l-2.359-1.742 3.068-4.19 2.714 1.516z" fill="#516b8a" data-fill-palette-color="primary"></path><path d="M231.178 41.915l2.172 2.146-8.076 8.175c-0.687 0.696-1.19 1.395-1.507 2.097-0.313 0.707-0.391 1.421-0.235 2.139 0.165 0.719 0.62 1.445 1.362 2.18v0c0.7 0.692 1.43 1.159 2.189 1.4 0.75 0.242 1.508 0.294 2.274 0.156 0.762-0.132 1.482-0.423 2.161-0.872v0l-1.146 1.932-0.471-0.466c-0.722 0.464-1.501 0.762-2.339 0.895-0.847 0.133-1.716 0.046-2.608-0.261-0.897-0.302-1.791-0.894-2.681-1.774v0c-1.034-1.021-1.679-2.045-1.937-3.071-0.252-1.021-0.157-2.056 0.287-3.105 0.444-1.04 1.19-2.091 2.239-3.153v0zM239.96 50.591l2.186 2.16-12.989 13.148-2.186-2.16 3.213-3.053 0.034-0.234z" fill="#516b8a" data-fill-palette-color="primary"></path><path d="M235.635 75.696v0c-1.275-1.821-1.68-3.602-1.215-5.342 0.456-1.742 1.764-3.37 3.925-4.883v0l2.501-1.752c2.172-1.521 4.166-2.199 5.984-2.032 1.813 0.161 3.375 1.176 4.684 3.047v0c0.653 0.932 1.061 1.848 1.225 2.747 0.162 0.908 0.109 1.772-0.16 2.59-0.275 0.822-0.747 1.578-1.417 2.267v0l0.571 0.815-2.831 0.878c0.865-0.655 1.471-1.378 1.818-2.168 0.346-0.79 0.456-1.607 0.331-2.451-0.125-0.844-0.47-1.669-1.035-2.476v0c-0.895-1.278-1.954-1.996-3.176-2.153-1.218-0.152-2.552 0.279-4 1.293v0l-2.88 2.016c-1.432 1.003-2.281 2.101-2.549 3.294-0.27 1.203 0.043 2.443 0.938 3.721v0c0.538 0.768 1.16 1.342 1.868 1.721 0.706 0.389 1.456 0.591 2.251 0.606 0.794 0.024 1.57-0.122 2.328-0.441v0l-1.355 1.881-0.525-0.748c-0.785 0.338-1.603 0.501-2.452 0.491-0.859-0.012-1.695-0.243-2.51-0.695-0.824-0.453-1.597-1.195-2.319-2.226zM241.265 83.035l-1.763-2.518 3.742-2.449 0.771-0.614 6.327-4.431 0.538-0.352 4.249-3.074 4.936-3.457 1.752 2.501z" fill="#516b8a" data-fill-palette-color="primary"></path><path d="M245.494 91.236l-1.421-2.726 16.388-8.545 1.421 2.726zM263.861 79.925v0c-0.291-0.558-0.362-1.05-0.213-1.474 0.154-0.428 0.49-0.777 1.006-1.046v0l0.089-0.046c0.522-0.272 1-0.348 1.434-0.227 0.433 0.121 0.796 0.461 1.087 1.019v0c0.291 0.558 0.365 1.056 0.223 1.493-0.145 0.431-0.479 0.782-1.002 1.054v0l-0.089 0.047c-0.522 0.272-1.002 0.345-1.439 0.218-0.44-0.133-0.805-0.479-1.096-1.038z" fill="#516b8a" data-fill-palette-color="primary"></path><path d="M249.928 103.984v0c-0.906-2.492-0.918-4.625-0.038-6.398 0.878-1.78 2.579-3.128 5.102-4.045v0l2.653-0.964c2.517-0.915 4.682-0.968 6.493-0.159 1.809 0.803 3.165 2.444 4.066 4.924v0c0.906 2.492 0.923 4.627 0.051 6.405-0.874 1.771-2.57 3.114-5.087 4.029v0l-2.652 0.964c-2.524 0.917-4.692 0.979-6.506 0.184-1.816-0.801-3.176-2.447-4.082-4.94zM252.278 103.13v0c0.56 1.542 1.443 2.55 2.649 3.024 1.203 0.468 2.664 0.389 4.382-0.235v0l2.973-1.081c1.712-0.622 2.876-1.498 3.492-2.626 0.614-1.135 0.64-2.473 0.08-4.015v0c-0.556-1.529-1.433-2.532-2.633-3.009-1.199-0.476-2.654-0.403-4.366 0.219v0l-2.974 1.081c-1.718 0.624-2.887 1.505-3.507 2.642-0.62 1.137-0.652 2.471-0.096 4z" fill="#516b8a" data-fill-palette-color="primary"></path><path d="M3.738 142.873c0-5.35 4.337-9.686 9.686-9.686 5.35 0 9.686 4.337 9.686 9.686 0 5.35-4.337 9.686-9.686 9.687-5.35 0-9.686-4.337-9.686-9.687z" fill="#516b8a" data-fill-palette-color="primary"></path><path d="M256.61 142.873c0-5.35 4.337-9.686 9.686-9.686 5.35 0 9.686 4.337 9.686 9.686 0 5.35-4.337 9.686-9.686 9.687-5.35 0-9.686-4.337-9.686-9.687z" fill="#516b8a" data-fill-palette-color="primary"></path></g><g id="text-1"><path d="M11.289 188.233v0c-0.379-1.13-0.633-2.196-0.764-3.198-0.131-1.001-0.186-1.915-0.166-2.741 0.026-0.828 0.091-1.531 0.193-2.109v0l2.933-1.332c-0.248 1.135-0.37 2.416-0.365 3.84 0.011 1.423 0.268 2.887 0.772 4.392v0c0.608 1.816 1.379 3.051 2.312 3.706 0.935 0.661 2.047 0.776 3.335 0.345v0l0.296-0.099c0.851-0.285 1.489-0.689 1.913-1.213 0.423-0.53 0.682-1.263 0.778-2.2 0.09-0.934 0.061-2.157-0.085-3.668v0c-0.179-1.903-0.16-3.481 0.056-4.733 0.216-1.252 0.673-2.259 1.371-3.023 0.706-0.759 1.694-1.352 2.964-1.777v0l0.171-0.057c1.924-0.645 3.621-0.511 5.092 0.401 1.477 0.91 2.646 2.648 3.506 5.214v0c0.564 1.683 0.869 3.173 0.915 4.471 0.053 1.296-0.002 2.388-0.163 3.275v0l-2.708 1.214c0.223-1.042 0.321-2.205 0.293-3.488-0.025-1.277-0.289-2.664-0.791-4.163v0c-0.398-1.187-0.86-2.102-1.386-2.745-0.533-0.641-1.118-1.038-1.755-1.192-0.638-0.154-1.331-0.105-2.08 0.146v0l-0.067 0.023c-0.762 0.255-1.358 0.635-1.789 1.14-0.431 0.505-0.706 1.232-0.826 2.183-0.121 0.945-0.113 2.234 0.025 3.869v0c0.172 1.863 0.169 3.404-0.009 4.621-0.178 1.218-0.61 2.206-1.294 2.966-0.687 0.753-1.713 1.358-3.078 1.815v0l-0.381 0.128c-2.127 0.713-3.968 0.571-5.525-0.427-1.552-1.006-2.783-2.867-3.693-5.584z" fill="#0074d9" data-fill-palette-color="secondary"></path><path d="M21.592 211.029v0c-1.382-2.534-1.801-4.78-1.259-6.738 0.542-1.958 1.965-3.565 4.269-4.822v0l2.964-1.615c2.34-1.276 4.467-1.661 6.382-1.158 1.917 0.495 3.503 1.892 4.756 4.192v0c0.84 1.54 1.254 2.985 1.241 4.333-0.006 1.346-0.396 2.569-1.168 3.669-0.773 1.1-1.891 2.049-3.356 2.848v0l-0.608 0.332c-0.365 0.199-0.737 0.383-1.118 0.552-0.381 0.169-0.76 0.327-1.138 0.472v0l-1.385-2.54c0.56-0.275 1.085-0.542 1.576-0.802 0.491-0.26 0.943-0.502 1.354-0.727v0c1.011-0.551 1.776-1.178 2.293-1.88 0.523-0.705 0.796-1.479 0.817-2.321 0.021-0.843-0.231-1.746-0.757-2.71v0c-0.782-1.435-1.783-2.284-3.003-2.55-1.217-0.259-2.598 0.032-4.145 0.875v0l-1.587 0.866-0.326 0.2-1.587 0.865c-0.694 0.378-1.265 0.82-1.715 1.324-0.44 0.507-0.743 1.092-0.909 1.754-0.163 0.653-0.165 1.375-0.008 2.167 0.157 0.792 0.489 1.652 0.995 2.581v0c0.59 1.082 1.279 2.01 2.067 2.785 0.798 0.778 1.663 1.442 2.597 1.993v0l-2.529 1.048c-0.868-0.488-1.707-1.144-2.515-1.97-0.814-0.822-1.547-1.83-2.198-3.023zM32.244 212.52l-6.447-11.826 2.081-1.134 6.447 11.826z" fill="#0074d9" data-fill-palette-color="secondary"></path><path d="M41.195 219.091v0l1.489-2.053 0.503 0.59c1.523-0.644 2.959-0.845 4.307-0.605 1.354 0.237 2.538 1.017 3.551 2.34v0c0.253 0.33 0.452 0.645 0.599 0.946 0.146 0.301 0.264 0.582 0.354 0.842v0l-2.308 2.009c-0.11-0.32-0.259-0.658-0.446-1.012-0.192-0.35-0.435-0.717-0.729-1.099v0c-0.863-1.127-1.93-1.87-3.201-2.23-1.267-0.354-2.64-0.264-4.119 0.272zM32.093 226.254l-1.912-2.496 15.038-11.521 1.863 2.432-4.533 3.283-0.043 0.324z" fill="#0074d9" data-fill-palette-color="secondary"></path><path d="M48.474 240.918l0.343 0.325 15.354-8.584 2.368 2.246-17.504 9.508-3.746-3.552 8.576-17.976 2.369 2.247z" fill="#0074d9" data-fill-palette-color="secondary"></path><path d="M65.826 257.871v0c-2.392-1.614-3.798-3.416-4.218-5.404-0.42-1.988 0.105-4.07 1.573-6.245v0l1.888-2.798c1.491-2.209 3.202-3.53 5.134-3.963 1.93-0.442 3.981 0.069 6.151 1.534v0c1.454 0.981 2.486 2.074 3.096 3.277 0.614 1.198 0.83 2.463 0.65 3.795-0.18 1.332-0.737 2.69-1.669 4.072v0l-0.388 0.574c-0.232 0.344-0.478 0.679-0.738 1.005-0.26 0.325-0.525 0.64-0.794 0.942v0l-2.398-1.618c0.371-0.501 0.714-0.98 1.031-1.437 0.316-0.457 0.606-0.88 0.868-1.268v0c0.644-0.955 1.035-1.863 1.171-2.724 0.14-0.867 0.026-1.679-0.342-2.437-0.369-0.758-1.009-1.444-1.919-2.058v0c-1.354-0.914-2.634-1.208-3.84-0.883-1.2 0.329-2.292 1.224-3.277 2.684v0l-1.012 1.499-0.197 0.327-1.011 1.499c-0.442 0.655-0.747 1.31-0.914 1.965-0.158 0.653-0.158 1.311 0 1.975 0.156 0.655 0.486 1.297 0.99 1.928 0.503 0.631 1.194 1.242 2.07 1.833v0c1.021 0.689 2.06 1.197 3.117 1.522 1.066 0.324 2.14 0.515 3.223 0.575v0l-1.764 2.094c-0.995-0.033-2.042-0.231-3.139-0.592-1.101-0.355-2.215-0.913-3.342-1.673zM75.97 254.295l-11.165-7.535 1.326-1.965 11.165 7.535z" fill="#0074d9" data-fill-palette-color="secondary"></path><path d="M97.271 272.933v0c-2.724-0.954-4.541-2.339-5.452-4.156-0.911-1.816-0.932-3.963-0.064-6.44v0l1.116-3.185c0.881-2.515 2.201-4.227 3.96-5.137 1.755-0.918 3.868-0.944 6.339-0.078v0c1.656 0.58 2.931 1.375 3.827 2.384 0.897 1.003 1.428 2.171 1.592 3.506 0.164 1.335-0.03 2.789-0.581 4.362v0l-0.23 0.654c-0.137 0.392-0.29 0.778-0.459 1.159-0.169 0.381-0.345 0.752-0.528 1.113v0l-2.73-0.956c0.231-0.579 0.442-1.129 0.632-1.652 0.19-0.522 0.363-1.005 0.517-1.447v0c0.381-1.087 0.528-2.064 0.442-2.932-0.084-0.874-0.401-1.63-0.95-2.27-0.549-0.639-1.342-1.141-2.379-1.504v0c-1.542-0.54-2.855-0.5-3.938 0.122-1.077 0.623-1.906 1.766-2.488 3.427v0l-0.598 1.707-0.107 0.367-0.598 1.706c-0.261 0.746-0.39 1.456-0.385 2.132 0.013 0.672 0.18 1.308 0.501 1.91 0.317 0.594 0.799 1.131 1.446 1.614 0.647 0.482 1.47 0.898 2.469 1.248v0c1.163 0.407 2.297 0.634 3.401 0.681 1.113 0.042 2.201-0.045 3.263-0.262v0l-1.175 2.473c-0.971 0.22-2.033 0.295-3.186 0.224-1.155-0.064-2.374-0.321-3.657-0.77zM106.175 266.899l-12.712-4.453 0.783-2.237 12.712 4.453z" fill="#0074d9" data-fill-palette-color="secondary"></path><path d="M119.458 275.543l0.467 0.075 7.81-15.762 3.224 0.514-9.061 17.739-5.099-0.813-3.09-19.675 3.224 0.514z" fill="#0074d9" data-fill-palette-color="secondary"></path><path d="M143.352 279.72v0c-2.886 0.02-5.064-0.671-6.533-2.074-1.47-1.403-2.214-3.417-2.232-6.042v0l-0.023-3.375c-0.019-2.665 0.647-4.722 1.996-6.171 1.343-1.456 3.323-2.193 5.941-2.211v0c1.754-0.012 3.223 0.306 4.406 0.954 1.183 0.641 2.077 1.563 2.681 2.763 0.604 1.201 0.912 2.635 0.924 4.303v0l0.005 0.693c0.003 0.415-0.011 0.83-0.042 1.246-0.031 0.415-0.071 0.824-0.122 1.226v0l-2.892 0.021c0.022-0.623 0.035-1.212 0.038-1.769 0.003-0.556 0.003-1.068-0.001-1.536v0c-0.008-1.152-0.199-2.121-0.573-2.909-0.374-0.794-0.927-1.4-1.66-1.817-0.733-0.417-1.648-0.621-2.746-0.614v0c-1.634 0.011-2.856 0.492-3.667 1.442-0.804 0.95-1.199 2.305-1.187 4.066v0l0.013 1.808 0.023 0.382 0.012 1.808c0.005 0.79 0.124 1.502 0.357 2.137 0.239 0.628 0.611 1.171 1.116 1.629 0.499 0.452 1.134 0.796 1.905 1.032 0.772 0.236 1.687 0.35 2.745 0.342v0c1.232-0.009 2.376-0.177 3.432-0.506 1.062-0.336 2.057-0.784 2.984-1.346v0l-0.273 2.724c-0.84 0.535-1.815 0.964-2.924 1.286-1.109 0.329-2.344 0.498-3.703 0.508zM149.7 271.037l-13.469 0.094-0.016-2.371 13.469-0.093z" fill="#0074d9" data-fill-palette-color="secondary"></path><path d="M159.72 266.253v0l-1.105-2.282 0.757-0.164c0.152-1.646 0.653-3.007 1.502-4.082 0.848-1.081 2.095-1.756 3.741-2.024v0c0.41-0.067 0.782-0.094 1.117-0.081 0.335 0.013 0.638 0.042 0.909 0.086v0l0.68 2.983c-0.334-0.054-0.702-0.082-1.103-0.085-0.4 0.004-0.837 0.045-1.313 0.123v0c-1.401 0.228-2.56 0.818-3.477 1.768-0.91 0.949-1.48 2.202-1.708 3.758zM161.732 277.66l-3.103 0.505-3.048-18.697 3.024-0.492 0.751 5.546 0.266 0.19z" fill="#0074d9" data-fill-palette-color="secondary"></path><path d="M182.075 269.432l1.716-0.568-1.336 1.204 0.116-17.666 3.08-1.02-0.401 27.125-3.023 1.001 0.119-9.16 1.686 0.711-3.395 1.124-11.586-15.303 3.098-1.027z" fill="#0074d9" data-fill-palette-color="secondary"></path><path d="M205.524 261.863l-4.173 2.434-13.571-14.015 2.803-1.635 11.609 12.508 0.313-0.182-4.775-15.901 3.835-2.237 11.49 11.984 0.295-0.172-5.137-16.283 2.785-1.625 5.519 18.712-4.156 2.424-9.554-10.02-1.886-2.017-0.252 0.147 0.836 2.629z" fill="#0074d9" data-fill-palette-color="secondary"></path><path d="M238.465 237.41l-2.335 2.105-7.888-8.752c-0.681-0.756-1.373-1.314-2.075-1.672-0.702-0.368-1.421-0.491-2.157-0.368-0.741 0.118-1.514 0.54-2.321 1.266v0c-0.741 0.668-1.255 1.383-1.541 2.146-0.286 0.763-0.383 1.531-0.29 2.304 0.097 0.778 0.352 1.531 0.765 2.258v0l-2.008-1.192 0.604-0.545c-0.43-0.767-0.688-1.584-0.776-2.451-0.092-0.872 0.049-1.757 0.423-2.652 0.364-0.896 1.014-1.766 1.949-2.609v0c1.114-1.004 2.205-1.604 3.272-1.8 1.067-0.196 2.117-0.042 3.148 0.462 1.036 0.509 2.074 1.34 3.114 2.495v0zM229.049 245.897l-2.335 2.105-17.215-19.101 2.32-2.092 4.136 4.589 3.557 4.096 0.264 0.114z" fill="#0074d9" data-fill-palette-color="secondary"></path><path d="M249.441 224.386v0c-1.755 2.291-3.637 3.587-5.646 3.887-2.009 0.3-4.056-0.348-6.14-1.944v0l-2.679-2.052c-2.116-1.62-3.332-3.408-3.649-5.363-0.326-1.953 0.307-3.969 1.899-6.048v0c1.067-1.393 2.219-2.358 3.456-2.894 1.232-0.541 2.508-0.681 3.828-0.422 1.319 0.26 2.641 0.896 3.964 1.91v0l0.551 0.422c0.33 0.252 0.649 0.518 0.958 0.797 0.309 0.279 0.607 0.562 0.893 0.849v0l-1.758 2.296c-0.478-0.4-0.936-0.771-1.373-1.114-0.437-0.343-0.842-0.657-1.214-0.943v0c-0.914-0.7-1.797-1.144-2.649-1.332-0.857-0.192-1.674-0.127-2.453 0.196-0.779 0.323-1.502 0.92-2.17 1.792v0c-0.993 1.297-1.364 2.557-1.11 3.78 0.257 1.217 1.085 2.361 2.483 3.432v0l1.435 1.1 0.315 0.216 1.436 1.099c0.627 0.48 1.263 0.824 1.906 1.03 0.642 0.197 1.299 0.236 1.972 0.118 0.663-0.117 1.324-0.407 1.983-0.872 0.66-0.465 1.311-1.117 1.954-1.957v0c0.749-0.978 1.318-1.985 1.706-3.021 0.387-1.045 0.643-2.106 0.768-3.182v0l1.984 1.886c-0.093 0.992-0.352 2.024-0.779 3.098-0.421 1.078-1.044 2.157-1.871 3.236zM246.479 214.046l-8.189 10.694-1.882-1.441 8.189-10.694z" fill="#0074d9" data-fill-palette-color="secondary"></path><path d="M248.849 203.199v0l-2.48-0.528 0.335-0.699c-1.207-1.13-1.974-2.361-2.302-3.69-0.334-1.333-0.101-2.732 0.697-4.196v0c0.199-0.365 0.406-0.675 0.621-0.931 0.216-0.256 0.424-0.478 0.626-0.666v0l2.773 1.294c-0.248 0.231-0.496 0.504-0.744 0.818-0.242 0.318-0.478 0.689-0.709 1.113v0c-0.679 1.247-0.925 2.523-0.737 3.83 0.191 1.301 0.831 2.519 1.92 3.655zM259.091 208.608l-1.504 2.761-16.635-9.065 1.466-2.69 4.841 2.809 0.313-0.092z" fill="#0074d9" data-fill-palette-color="secondary"></path><path d="M268.705 187.528v0c-0.982 2.714-2.385 4.517-4.21 5.41-1.825 0.892-3.972 0.892-6.441-0.001v0l-3.174-1.148c-2.506-0.906-4.205-2.244-5.096-4.011-0.9-1.764-0.905-3.877-0.015-6.339v0c0.597-1.65 1.404-2.917 2.422-3.803 1.012-0.887 2.186-1.406 3.522-1.557 1.336-0.151 2.788 0.058 4.356 0.625v0l0.652 0.236c0.39 0.141 0.775 0.298 1.154 0.471 0.379 0.173 0.748 0.353 1.108 0.539v0l-0.984 2.721c-0.577-0.237-1.125-0.453-1.645-0.649-0.52-0.195-1.001-0.373-1.442-0.532v0c-1.083-0.392-2.059-0.549-2.927-0.471-0.875 0.075-1.634 0.384-2.279 0.927-0.645 0.543-1.154 1.331-1.528 2.364v0c-0.556 1.536-0.529 2.849 0.081 3.938 0.612 1.083 1.747 1.924 3.403 2.523v0l1.7 0.615 0.366 0.111 1.7 0.615c0.743 0.269 1.452 0.404 2.128 0.407 0.672-0.006 1.31-0.167 1.916-0.482 0.597-0.311 1.139-0.788 1.628-1.43 0.489-0.642 0.913-1.461 1.273-2.456v0c0.419-1.159 0.657-2.29 0.714-3.395 0.054-1.113-0.023-2.201-0.228-3.265v0l2.46 1.199c0.211 0.973 0.275 2.036 0.193 3.189-0.076 1.155-0.345 2.371-0.807 3.649zM262.761 178.564l-4.581 12.667-2.229-0.806 4.581-12.667z" fill="#0074d9" data-fill-palette-color="secondary"></path></g></svg></g></svg></g></svg></g></svg></g><defs></defs></svg><rect width="279.72" height="279.72" fill="none" stroke="none" visibility="hidden"></rect></g></svg></g></svg>